<?xml version="1.0" encoding="utf-8"?>
<!-- Generator: Adobe Illustrator 16.0.0, SVG Export Plug-In . SVG Version: 6.00 Build 0)  -->
<!DOCTYPE svg PUBLIC "-//W3C//DTD SVG 1.1//EN" "http://www.w3.org/Graphics/SVG/1.1/DTD/svg11.dtd">
<svg version="1.1" xmlns="http://www.w3.org/2000/svg" xmlns:xlink="http://www.w3.org/1999/xlink" x="0px" y="0px"
	 width="1414.277px" height="1000px" viewBox="0 0 1414.277 1000" enable-background="new 0 0 1414.277 1000" xml:space="preserve">
<g id="Layer_2">
	<g>
		<path fill="#FFFFFF" d="M528.593,229.655c0,1.1-0.865,1.999-1.921,1.999h-10.708c-1.056,0-1.921-0.899-1.921-1.999v-29.06
			c0-1.1,0.865-1.999,1.921-1.999h10.708c1.056,0,1.921,0.899,1.921,1.999V229.655z"/>
		<path fill="none" stroke="#D0D2D3" stroke-width="3" stroke-linecap="round" stroke-linejoin="round" stroke-miterlimit="10" d="
			M528.593,229.655c0,1.1-0.865,1.999-1.921,1.999h-10.708c-1.056,0-1.921-0.899-1.921-1.999v-29.06c0-1.1,0.865-1.999,1.921-1.999
			h10.708c1.056,0,1.921,0.899,1.921,1.999V229.655z"/>
	</g>
	<g>
		<path fill="#FFFFFF" d="M525.391,325.612c0,1.1-0.865,1.999-1.92,1.999h-7.374c-1.056,0-1.92-0.899-1.92-1.999v-54.542
			c0-1.1,0.865-1.999,1.92-1.999h7.374c1.056,0,1.92,0.899,1.92,1.999V325.612z"/>
		<path fill="none" stroke="#D0D2D3" stroke-width="3" stroke-linecap="round" stroke-linejoin="round" stroke-miterlimit="10" d="
			M525.391,325.612c0,1.1-0.865,1.999-1.92,1.999h-7.374c-1.056,0-1.92-0.899-1.92-1.999v-54.542c0-1.1,0.865-1.999,1.92-1.999
			h7.374c1.056,0,1.92,0.899,1.92,1.999V325.612z"/>
	</g>
	<g>
		<path fill="#FFFFFF" d="M878.317,324.612c0,1.649-1.296,2.999-2.881,2.999h-7.828c-1.585,0-2.881-1.349-2.881-2.999v-52.53
			c0-1.649,1.296-2.999,2.881-2.999h7.828c1.585,0,2.881,1.35,2.881,2.999V324.612z"/>
		<path fill="none" stroke="#D0D2D3" stroke-width="3" stroke-linecap="round" stroke-linejoin="round" stroke-miterlimit="10" d="
			M878.317,324.612c0,1.649-1.296,2.999-2.881,2.999h-7.828c-1.585,0-2.881-1.349-2.881-2.999v-52.53
			c0-1.649,1.296-2.999,2.881-2.999h7.828c1.585,0,2.881,1.35,2.881,2.999V324.612z"/>
	</g>
	<g>
		<path fill="#FFFFFF" d="M526.992,397.864c0,1.1-0.865,1.999-1.921,1.999h-8.829c-1.056,0-1.921-0.899-1.921-1.999v-54.542
			c0-1.1,0.865-1.999,1.921-1.999h8.829c1.056,0,1.921,0.899,1.921,1.999V397.864z"/>
		<path fill="none" stroke="#D0D2D3" stroke-width="3" stroke-linecap="round" stroke-linejoin="round" stroke-miterlimit="10" d="
			M526.992,397.864c0,1.1-0.865,1.999-1.921,1.999h-8.829c-1.056,0-1.921-0.899-1.921-1.999v-54.542c0-1.1,0.865-1.999,1.921-1.999
			h8.829c1.056,0,1.921,0.899,1.921,1.999V397.864z"/>
	</g>
	
		<path fill="#FFFFFF" stroke="#D0D2D3" stroke-width="3" stroke-linecap="round" stroke-linejoin="round" stroke-miterlimit="10" d="
		M822.859,111.806H569.065c-27.511,0-49.814,23.212-49.814,51.846v670.864c0,28.633,22.304,51.844,49.814,51.844h253.793
		c27.512,0,49.813-23.211,49.813-51.844V163.653C872.672,135.019,850.371,111.806,822.859,111.806z M856.015,768.484h-321V198.287
		h321V768.484z"/>
</g>
<g id="iPhone_6_-_4.7_x27__x27_">
	<circle fill="#FFFFFF" stroke="#D0D2D3" stroke-width="3" stroke-miterlimit="10" cx="702.555" cy="842.425" r="30.109"/>
	<circle fill="#FFFFFF" cx="702.555" cy="842.425" r="26.354"/>
	
		<ellipse fill="#F1F1F2" stroke="#DBDBDB" stroke-width="1.5" stroke-miterlimit="10" cx="635.965" cy="153.53" rx="6.35" ry="6.608"/>
	
		<ellipse fill="#F1F1F2" stroke="#DBDBDB" stroke-width="1.5" stroke-miterlimit="10" cx="695.086" cy="127.171" rx="3.88" ry="4.038"/>
	<path fill="#E5E5E5" stroke="#DBDBDB" stroke-width="2" stroke-miterlimit="10" d="M723.55,153.73c0,1.634-1.271,2.958-2.842,2.958
		H668.77c-1.57,0-2.842-1.324-2.842-2.958v-0.082c0-1.633,1.271-2.958,2.842-2.958h51.938c1.57,0,2.842,1.325,2.842,2.958V153.73z"
		/>
</g>
</svg>
