<?xml version="1.0" encoding="utf-8"?>
<!-- Generator: Adobe Illustrator 16.0.0, SVG Export Plug-In . SVG Version: 6.00 Build 0)  -->
<!DOCTYPE svg PUBLIC "-//W3C//DTD SVG 1.1//EN" "http://www.w3.org/Graphics/SVG/1.1/DTD/svg11.dtd">
<svg version="1.1" id="Layer_1" xmlns="http://www.w3.org/2000/svg" xmlns:xlink="http://www.w3.org/1999/xlink" x="0px" y="0px"
	 width="612px" height="792px" viewBox="0 0 612 792" enable-background="new 0 0 612 792" xml:space="preserve">
<path d="M453.127,269.041c-96.853,0-194.385,0-291.24,0c-10.159,0-19.642,8.805-18.965,18.965
	c6.096,93.468,12.192,186.936,18.287,281.082c2.709,37.93,27.092,65.02,60.958,77.211c23.028,8.129,54.862,3.389,78.567,3.389
	c61.635,0,141.557,6.094,152.393-75.182c0-0.678,0-0.678,0-1.355c0-1.354,0.678-2.709,0.678-4.062
	c6.097-93.469,12.192-187.614,18.288-281.082C472.77,277.846,463.288,269.041,453.127,269.041z M275.674,611.08
	c-28.446,0-54.861,2.709-71.794-25.736c-6.772-11.516-5.418-30.479-6.772-43.35c-4.742-77.889-10.161-156.457-14.901-235.023
	c83.309,0,167.293,0,250.603,0c-5.42,86.695-11.516,173.389-16.933,260.084C405.039,628.014,322.408,611.08,275.674,611.08z"/>
<path d="M466.674,205.375c-29.123,0-57.57,0-86.695,0c-4.063-36.574-31.832-62.312-69.084-64.344
	c-37.252-2.032-65.022,29.801-69.085,64.344c-29.125,0-57.571,0-86.695,0c-24.383,0-24.383,37.929,0,37.929
	c103.628,0,207.255,0,311.56,0C491.058,243.304,491.058,205.375,466.674,205.375z M342.051,205.375c-20.32,0-41.316,0-61.636,0
	C286.511,171.509,335.277,171.509,342.051,205.375z"/>
<path d="M241.132,368.605c0,56.893,0,114.463,0,171.358c0,24.383,37.93,24.383,37.93,0c0-56.895,0-114.465,0-171.358
	C279.062,344.222,241.132,344.222,241.132,368.605z"/>
<path d="M335.954,368.605c0,56.893,0,114.463,0,171.358c0,24.383,37.929,24.383,37.929,0c0-56.895,0-114.465,0-171.358
	C373.883,344.222,335.954,344.222,335.954,368.605z"/>
</svg>
